# File created by Blade
# Date/Time:  Fri Jan 16 19:41:12 2015
# Frame Rate: 120.000 fps
#------------------------------------------------------
:FULLY-SPECIFIED
:DEGREES
383
root 18.643663 35.472179 -21.260791 13.120834 10.026862 -0.184347
Spine -25.737919 -17.153097 -0.270119
Head 16.981810 7.671909 13.369684
LeftShoulder -3.402719 1.528333 -5.982989
LeftArm -106.184711 51.429293 -205.595951
LeftForeArm 65.047389 -0.000000 123.619447
LeftHand 8.464774 -0.000000 13.637438
LeftHandThumb1 -26.253704 0.000000 33.147579
RightShoulder -20.945161 28.225161 -39.388819
RightArm 153.195171 52.582481 119.338049
RightForeArm 9.606539 -0.000000 152.270275
RightHand 6.019067 -0.000000 -21.747889
RightHandThumb1 -24.326973 -0.000000 -32.862282
LeftUpLeg -3.041465 0.608584 1.623246
LeftLeg -7.882232 -0.000000 0.000000
LeftFoot -19.588423 25.986446 -14.225797
LeftToeBase 24.318655 -0.000000 -0.000000
RightUpLeg -1.629293 -13.937734 -0.028435
RightLeg -4.341518 -0.000000 0.000000
RightFoot -24.113230 -24.577085 21.862240
RightToeBase 22.389728 -0.000000 -0.000000
384
root 18.640554 35.473249 -21.260318 13.107235 10.061868 -0.205773
Spine -25.699811 -17.222997 -0.218465
Head 16.936866 7.702960 13.402560
LeftShoulder -3.497073 1.630438 -5.917221
LeftArm -106.305429 51.254370 -205.644887
LeftForeArm 65.334390 -0.000000 123.746210
LeftHand 8.423547 -0.000000 13.817388
LeftHandThumb1 -26.253704 0.000000 33.147579
RightShoulder -20.849457 28.365014 -39.418944
RightArm 152.997814 52.651034 118.969751
RightForeArm 9.483339 -0.000000 152.108744
RightHand 6.059061 -0.000000 -21.779279
RightHandThumb1 -24.326973 -0.000000 -32.862282
LeftUpLeg -3.038041 0.566590 1.656568
LeftLeg -7.880364 -0.000000 0.000000
LeftFoot -19.590305 26.003063 -14.230191
LeftToeBase 24.255399 -0.000000 -0.000000
RightUpLeg -1.622845 -13.945676 0.000330
RightLeg -4.324886 -0.000000 0.000000
RightFoot -24.110041 -24.578740 21.888248
RightToeBase 22.361055 -0.000000 -0.000000
385
root 18.640390 35.474504 -21.258354 13.115998 10.037867 -0.216362
Spine -25.702866 -17.231925 -0.200964
Head 16.904887 7.687062 13.430615
LeftShoulder -3.590507 1.815421 -5.765212
LeftArm -106.528415 51.165666 -205.805833
LeftForeArm 65.494255 -0.000000 123.857371
LeftHand 8.272455 -0.000000 13.936571
LeftHandThumb1 -26.253704 0.000000 33.147579
RightShoulder -20.787219 28.547471 -39.500228
RightArm 152.606752 52.751305 118.496094
RightForeArm 9.129847 -0.000000 152.005789
RightHand 5.975900 -0.000000 -21.906731
RightHandThumb1 -24.326973 -0.000000 -32.862282
LeftUpLeg -3.037860 0.604371 1.658091
LeftLeg -7.890948 -0.000000 0.000000
LeftFoot -19.587158 26.003084 -14.233555
LeftToeBase 24.283627 -0.000000 -0.000000
RightUpLeg -1.648191 -13.909903 0.005307
RightLeg -4.294585 -0.000000 0.000000
RightFoot -24.098715 -24.552076 21.895470
RightToeBase 22.305919 -0.000000 -0.000000
386
root 18.639515 35.473097 -21.256209 13.112722 10.040385 -0.242201
Spine -25.614575 -17.131136 -0.176731
Head 16.652577 7.593576 13.315958
LeftShoulder -3.612322 1.845825 -5.689699
LeftArm -106.755090 50.935291 -205.901947
LeftForeArm 65.674971 0.000000 123.962876
LeftHand 8.197859 -0.000000 14.067092
LeftHandThumb1 -26.253704 0.000000 33.147579
RightShoulder -21.004948 28.496568 -39.790787
RightArm 152.477315 52.606971 118.454988
RightForeArm 8.950348 -0.000000 151.992785
RightHand 5.805088 -0.000000 -21.883037
RightHandThumb1 -24.326973 -0.000000 -32.862282
LeftUpLeg -3.033802 0.616203 1.681889
LeftLeg -7.896323 -0.000000 0.000000
LeftFoot -19.593313 26.027989 -14.198759
LeftToeBase 24.283330 -0.000000 -0.000000
RightUpLeg -1.656682 -13.876283 0.039137
RightLeg -4.282238 -0.000000 0.000000
RightFoot -24.151168 -24.626030 21.931936
RightToeBase 22.350446 -0.000000 -0.000000
387
root 18.638126 35.473950 -21.256246 13.083171 10.067719 -0.258744
Spine -25.558985 -17.247552 -0.145785
Head 16.618699 7.631930 13.408356
LeftShoulder -3.707372 1.913256 -5.588987
LeftArm -106.743936 50.781068 -205.850408
LeftForeArm 65.885027 -0.000000 124.019615
LeftHand 8.043344 -0.000000 14.195548
LeftHandThumb1 -26.253704 0.000000 33.147579
RightShoulder -20.841593 28.525372 -39.722180
RightArm 152.460031 52.552035 118.272991
RightForeArm 8.477689 0.000000 151.887353
RightHand 5.746605 -0.000000 -21.984043
RightHandThumb1 -24.326973 -0.000000 -32.862282
LeftUpLeg -3.022090 0.615038 1.701031
LeftLeg -7.879921 -0.000000 0.000000
LeftFoot -19.601644 26.025577 -14.172638
LeftToeBase 24.302950 -0.000000 -0.000000
RightUpLeg -1.640852 -13.859806 0.056213
RightLeg -4.256325 -0.000000 0.000000
RightFoot -24.174948 -24.658656 21.974633
RightToeBase 22.345003 -0.000000 -0.000000
388
root 18.637091 35.473551 -21.254749 13.059593 10.095121 -0.281958
Spine -25.509690 -17.327171 -0.101343
Head 16.552243 7.651428 13.443659
LeftShoulder -3.796819 1.992507 -5.515416
LeftArm -106.837685 50.637074 -205.909791
LeftForeArm 66.168657 -0.000000 124.050769
LeftHand 7.915293 -0.000000 14.297091
LeftHandThumb1 -26.253704 0.000000 33.147579
RightShoulder -20.769084 28.528260 -39.748056
RightArm 152.416075 52.438965 118.166485
RightForeArm 8.225393 -0.000000 151.821043
RightHand 5.709479 -0.000000 -21.948725
RightHandThumb1 -24.326973 -0.000000 -32.862282
LeftUpLeg -3.010356 0.616725 1.727483
LeftLeg -7.866009 -0.000000 0.000000
LeftFoot -19.614945 26.016414 -14.132397
LeftToeBase 24.367565 -0.000000 -0.000000
RightUpLeg -1.628578 -13.856248 0.080728
RightLeg -4.231884 -0.000000 0.000000
RightFoot -24.188058 -24.681713 21.961888
RightToeBase 22.388361 -0.000000 -0.000000
389
root 18.635758 35.473779 -21.255569 13.015270 10.128140 -0.295854
Spine -25.440592 -17.391274 -0.088649
Head 16.537521 7.654437 13.486719
LeftShoulder -3.793783 2.087370 -5.444348
LeftArm -106.836925 50.554011 -205.871658
LeftForeArm 66.411583 0.000000 124.067641
LeftHand 7.913820 -0.000000 14.546570
LeftHandThumb1 -26.253704 0.000000 33.147579
RightShoulder -20.651433 28.630969 -39.766226
RightArm 152.278265 52.448141 117.888368
RightForeArm 8.056210 0.000000 151.703604
RightHand 5.679352 -0.000000 -21.937249
RightHandThumb1 -24.326973 -0.000000 -32.862282
LeftUpLeg -2.986358 0.603836 1.746807
LeftLeg -7.847538 -0.000000 0.000000
LeftFoot -19.609741 26.024585 -14.096481
LeftToeBase 24.335826 -0.000000 -0.000000
RightUpLeg -1.600415 -13.862904 0.092887
RightLeg -4.200637 -0.000000 0.000000
RightFoot -24.201534 -24.696965 21.987532
RightToeBase 22.321017 -0.000000 -0.000000
